<svg 
          width="21.490657806396484" 
          height="19.937889099121094" fill="none" 
          xmlns="http://www.w3.org/2000/svg">
          <path d="M 19.92432975769043 10.731888771057129 L 19.937328338623047 10.745888710021973 L 10.745328903198242 19.937889099121094 L 1.553329348564148 10.745888710021973 L 1.5663293600082397 10.731888771057129 C 0.49889492988586426 9.48743748664856 -0.0588282672688365 7.885569214820862 0.004919392056763172 6.247273921966553 C 0.06866705138236284 4.608978629112244 0.7491757869720459 3.055290460586548 1.9100819826126099 1.8975461721420288 C 3.070988178253174 0.7398018836975098 4.626526355743408 0.06353305373340845 6.264989376068115 0.004253783263266087 C 7.903452396392822 -0.05502548720687628 9.503793478012085 0.5070643424987793 10.745328903198242 1.5778888463974 C 11.9868643283844 0.5070643424987793 13.587204933166504 -0.05502548720687628 15.225667953491211 0.004253783263266087 C 16.864130973815918 0.06353305373340845 18.4196697473526 0.7398018836975098 19.580575942993164 1.8975461721420288 C 20.741482138633728 3.055290460586548 21.42199109494686 4.608978629112244 21.48573875427246 6.247273921966553 C 21.54948641359806 7.885569214820862 20.991764187812805 9.48743748664856 19.92432975769043 10.731888771057129 L 19.92432975769043 10.731888771057129 Z" fill="rgb(215.68750709295273,39.542714953422546,39.542714953422546)"/>
        </svg>