<svg 
          width="23.333335876464844" 
          height="23.33333396911621" fill="none" 
          xmlns="http://www.w3.org/2000/svg">
          <path d="M 18.667831166490263 21.000000572204588 L 20.999998283386557 21.000000572204588 L 20.999998283386557 23.33333396911621 L 11.666665712992533 23.33333396911621 C 5.223166515636503 23.33333396911621 0 18.11016688419977 0 11.666666984558105 C 0 5.22316708491644 5.223166515636503 0 11.666665712992533 0 C 18.110164910348562 0 23.333331425985065 5.22316708491644 23.333331425985065 11.666666984558105 C 23.334828001810116 13.47800063061942 22.913913343859196 15.26472757129834 22.104022126550426 16.884915176162213 C 21.294130909241655 18.505102781026086 20.117578709732342 19.91410765669297 18.667831166490263 21.000000572204588 L 18.667831166490263 21.000000572204588 Z M 11.666665712992533 9.333333587646484 C 12.28550416139625 9.333333587646484 12.878996119144283 9.087500496960828 13.31658095542167 8.64991561299048 C 13.754165791699059 8.212330729020131 13.999998855591038 7.618838706586614 13.999998855591038 7.000000190734863 C 13.999998855591038 6.381161674883111 13.754165791699059 5.7876690961395605 13.31658095542167 5.350084212169213 C 12.878996119144283 4.912499328198865 12.28550416139625 4.666666793823244 11.666665712992533 4.666666793823242 C 11.047827264588815 4.666666793823244 10.454335306840782 4.912499328198865 10.016750470563395 5.350084212169213 C 9.579165634286007 5.7876690961395605 9.333332570394026 6.381161674883111 9.333332570394026 7.000000190734863 C 9.333332570394026 7.618838706586614 9.579165634286007 8.212330729020131 10.016750470563395 8.64991561299048 C 10.454335306840782 9.087500496960828 11.047827264588815 9.333333587646484 11.666665712992533 9.333333587646484 Z M 6.999999427795519 14.000000381469725 C 7.618837876199237 14.000000381469725 8.212329833947269 13.754167290784071 8.649914670224657 13.316582406813723 C 9.087499506502045 12.878997522843374 9.333332570394026 12.285505500409858 9.333332570394026 11.666666984558105 C 9.333332570394026 11.047828468706353 9.087499506502045 10.454336446272837 8.649914670224657 10.016751562302488 C 8.212329833947269 9.57916667833214 7.618837876199237 9.333333587646484 6.999999427795519 9.333333587646484 C 6.381160979391801 9.333333587646484 5.787668465333798 9.57916667833214 5.350083629056409 10.016751562302488 C 4.9124987927790205 10.454336446272837 4.666666285197015 11.047828468706353 4.666666285197013 11.666666984558105 C 4.666666285197014 12.285505500409858 4.9124987927790205 12.878997522843374 5.350083629056409 13.316582406813723 C 5.787668465333798 13.754167290784071 6.381160979391801 14.000000381469725 6.999999427795519 14.000000381469725 L 6.999999427795519 14.000000381469725 Z M 16.333331998189546 14.000000381469725 C 16.952170446593264 14.000000381469725 17.545662404341297 13.754167290784071 17.983247240618685 13.316582406813723 C 18.420832076896072 12.878997522843374 18.66666514078805 12.285505500409858 18.66666514078805 11.666666984558105 C 18.66666514078805 11.047828468706353 18.420832076896072 10.454336446272837 17.983247240618685 10.016751562302488 C 17.545662404341297 9.57916667833214 16.952170446593264 9.333333587646484 16.333331998189546 9.333333587646484 C 15.714493549785828 9.333333587646484 15.121001592037794 9.57916667833214 14.683416755760407 10.016751562302488 C 14.245831919483019 10.454336446272837 13.999998855591038 11.047828468706353 13.999998855591038 11.666666984558105 C 13.999998855591038 12.285505500409858 14.245831919483019 12.878997522843374 14.683416755760407 13.316582406813723 C 15.121001592037794 13.754167290784071 15.714493549785828 14.000000381469725 16.333331998189546 14.000000381469725 Z M 11.666665712992533 18.666667175292968 C 12.28550416139625 18.666667175292968 12.878996119144283 18.420834084607314 13.31658095542167 17.983249200636966 C 13.754165791699059 17.545664316666617 13.999998855591038 16.9521722942331 13.999998855591038 16.33333377838135 C 13.999998855591038 15.714495262529596 13.754165791699059 15.121003240096078 13.31658095542167 14.68341835612573 C 12.878996119144283 14.24583347215538 12.28550416139625 14.000000381469725 11.666665712992533 14.000000381469725 C 11.047827264588815 14.000000381469725 10.454335306840782 14.24583347215538 10.016750470563395 14.68341835612573 C 9.579165634286007 15.121003240096078 9.333332570394026 15.714495262529596 9.333332570394026 16.33333377838135 C 9.333332570394026 16.9521722942331 9.579165634286007 17.545664316666617 10.016750470563395 17.983249200636966 C 10.454335306840782 18.420834084607314 11.047827264588815 18.666667175292968 11.666665712992533 18.666667175292968 Z" fill="rgb(0,0,0)"/>
        </svg>