<svg 
          width="23.33333396911621" 
          height="22.166667938232422" fill="none" 
          xmlns="http://www.w3.org/2000/svg">
          <path d="M 2.333333396911621 11.6666673359118 L 5.833333492279053 11.6666673359118 C 6.4521720081308045 11.6666673359118 7.045664030564322 11.912500434000973 7.48324891453467 12.350085331149641 C 7.920833798505018 12.787670228298309 8.166666889190674 13.381162268605449 8.166666889190674 14.00000080309416 L 8.166666889190674 19.83333447105006 C 8.166666889190674 20.452173005538768 7.920833798505018 21.04566504584591 7.48324891453467 21.48324994299458 C 7.045664030564322 21.920834840143247 6.4521720081308045 22.166667938232422 5.833333492279053 22.166667938232422 L 2.333333396911621 22.166667938232422 C 1.7144948810598692 22.166667938232422 1.1210023023163187 21.920834840143247 0.6834174183459708 21.48324994299458 C 0.24583253437562286 21.04566504584591 5.181040922756222e-16 20.452173005538768 0 19.83333447105006 L 0 11.6666673359118 C 0 5.223167242217498 5.22316708491644 0 11.666666984558105 0 C 18.11016688419977 0 23.33333396911621 5.223167242217498 23.33333396911621 11.6666673359118 L 23.33333396911621 19.83333447105006 C 23.33333396911621 20.452173005538768 23.087500878430554 21.04566504584591 22.649915994460205 21.48324994299458 C 22.212331110489856 21.920834840143247 21.61883908805634 22.166667938232422 21.000000572204588 22.166667938232422 L 17.500000476837158 22.166667938232422 C 16.881161960985406 22.166667938232422 16.28766993855189 21.920834840143247 15.850085054581541 21.48324994299458 C 15.412500170611192 21.04566504584591 15.166667079925537 20.452173005538768 15.166667079925537 19.83333447105006 L 15.166667079925537 14.00000080309416 C 15.166667079925537 13.381162268605449 15.412500170611192 12.787670228298309 15.850085054581541 12.350085331149641 C 16.28766993855189 11.912500434000973 16.881161960985406 11.666667335911798 17.500000476837158 11.6666673359118 L 21.000000572204588 11.6666673359118 C 21.000000572204584 9.191313197956955 20.016670434702096 6.817343367798242 18.266330898820705 5.067003779203572 C 16.515991362939314 3.3166641906089014 14.142021047965113 2.333333467182361 11.666666984558105 2.33333346718236 C 9.191312921151098 2.3333334671823622 6.81734316248693 3.3166641906089014 5.067003626605538 5.067003779203572 C 3.316664090724146 6.817343367798242 2.333333396911624 9.191313197956955 2.333333396911621 11.6666673359118 L 2.333333396911621 11.6666673359118 Z" fill="rgb(0,0,0)"/>
        </svg>